<svg width="51" height="51" viewBox="0 0 51 51" fill="none" xmlns="http://www.w3.org/2000/svg">
<mask id="mask0_64_102" style="mask-type:luminance" maskUnits="userSpaceOnUse" x="0" y="0" width="51" height="51">
<path d="M49.6192 20.8334H26.0743V30.5959H39.627C38.3636 36.798 33.0803 40.3585 26.0743 40.3585C17.8048 40.3585 11.1433 33.697 11.1433 25.4275C11.1433 17.1581 17.8048 10.4966 26.0743 10.4966C29.6347 10.4966 32.8506 11.76 35.3774 13.8273L42.728 6.47673C38.2487 2.57171 32.5061 0.15979 26.0743 0.15979C12.0622 0.15979 0.806519 11.4154 0.806519 25.4275C0.806519 39.4397 12.0622 50.6953 26.0743 50.6953C38.7081 50.6953 50.1935 41.507 50.1935 25.4275C50.1935 23.9344 49.9638 22.3265 49.6192 20.8334Z" fill="white"/>
</mask>
<g mask="url(#mask0_64_102)">
<path d="M-1.4906 40.3586V10.4967L18.0345 25.4276L-1.4906 40.3586Z" fill="#FBBC05"/>
</g>
<mask id="mask1_64_102" style="mask-type:luminance" maskUnits="userSpaceOnUse" x="0" y="0" width="51" height="51">
<path d="M49.6192 20.8334H26.0743V30.5959H39.627C38.3636 36.798 33.0803 40.3585 26.0743 40.3585C17.8048 40.3585 11.1433 33.697 11.1433 25.4275C11.1433 17.1581 17.8048 10.4966 26.0743 10.4966C29.6347 10.4966 32.8506 11.76 35.3774 13.8273L42.728 6.47673C38.2487 2.57171 32.5061 0.15979 26.0743 0.15979C12.0622 0.15979 0.806519 11.4154 0.806519 25.4275C0.806519 39.4397 12.0622 50.6953 26.0743 50.6953C38.7081 50.6953 50.1935 41.507 50.1935 25.4275C50.1935 23.9344 49.9638 22.3265 49.6192 20.8334Z" fill="white"/>
</mask>
<g mask="url(#mask1_64_102)">
<path d="M-1.4906 10.4965L18.0345 25.4275L26.0742 18.4214L53.639 13.9421V-2.13733H-1.4906V10.4965Z" fill="#EA4335"/>
</g>
<mask id="mask2_64_102" style="mask-type:luminance" maskUnits="userSpaceOnUse" x="0" y="0" width="51" height="51">
<path d="M49.6192 20.8334H26.0743V30.5959H39.627C38.3636 36.798 33.0803 40.3585 26.0743 40.3585C17.8048 40.3585 11.1433 33.697 11.1433 25.4275C11.1433 17.1581 17.8048 10.4966 26.0743 10.4966C29.6347 10.4966 32.8506 11.76 35.3774 13.8273L42.728 6.47673C38.2487 2.57171 32.5061 0.15979 26.0743 0.15979C12.0622 0.15979 0.806519 11.4154 0.806519 25.4275C0.806519 39.4397 12.0622 50.6953 26.0743 50.6953C38.7081 50.6953 50.1935 41.507 50.1935 25.4275C50.1935 23.9344 49.9638 22.3265 49.6192 20.8334Z" fill="white"/>
</mask>
<g mask="url(#mask2_64_102)">
<path d="M-1.4906 40.3584L32.9654 13.9421L42.0388 15.0907L53.639 -2.13733V52.9923H-1.4906V40.3584Z" fill="#34A853"/>
</g>
<mask id="mask3_64_102" style="mask-type:luminance" maskUnits="userSpaceOnUse" x="0" y="0" width="51" height="51">
<path d="M49.6192 20.8334H26.0743V30.5959H39.627C38.3636 36.798 33.0803 40.3585 26.0743 40.3585C17.8048 40.3585 11.1433 33.697 11.1433 25.4275C11.1433 17.1581 17.8048 10.4966 26.0743 10.4966C29.6347 10.4966 32.8506 11.76 35.3774 13.8273L42.728 6.47673C38.2487 2.57171 32.5061 0.15979 26.0743 0.15979C12.0622 0.15979 0.806519 11.4154 0.806519 25.4275C0.806519 39.4397 12.0622 50.6953 26.0743 50.6953C38.7081 50.6953 50.1935 41.507 50.1935 25.4275C50.1935 23.9344 49.9638 22.3265 49.6192 20.8334Z" fill="white"/>
</mask>
<g mask="url(#mask3_64_102)">
<path d="M53.6391 52.9925L18.0346 25.4276L13.4404 21.982L53.6391 10.4967V52.9925Z" fill="#4285F4"/>
</g>
</svg>
