<svg width="738" height="990" viewBox="0 0 738 990" fill="none" xmlns="http://www.w3.org/2000/svg">
<g filter="url(#filter0_d_6_123)">
<rect x="5" y="1" width="724" height="651" rx="25" fill="#F4DFEC"/>
<rect x="4.7229" y="667.868" width="724.433" height="311.089" rx="25" fill="#F9AAD9"/>
<path d="M729 844.717H4V525.761C285.932 426.613 440.422 426.697 729 525.761V844.717Z" fill="#F9AAD9"/>
<mask id="mask0_6_123" style="mask-type:alpha" maskUnits="userSpaceOnUse" x="215" y="638" width="303" height="48">
<path d="M233.431 685.899C208.653 680.943 213.607 652.622 227.768 649.082C239.097 644.834 380.701 626.425 504.605 649.082C527.26 660.41 515.224 685.191 498.939 685.899C366.539 667.49 297.153 678.819 233.431 685.899Z" fill="#962F72"/>
</mask>
<g mask="url(#mask0_6_123)">
<path d="M233.431 685.899C208.653 680.943 213.607 652.622 227.768 649.082C239.097 644.834 380.701 626.425 504.605 649.082C527.26 660.41 515.224 685.191 498.939 685.899C366.539 667.49 297.153 678.819 233.431 685.899Z" fill="#6D1953"/>
<path d="M233.431 701.475C208.652 696.519 111.388 679.28 227.768 664.658C344.148 650.036 353.352 647.912 504.869 664.905C656.385 681.897 515.223 700.767 498.939 701.475C366.539 683.067 297.152 694.395 233.431 701.475Z" fill="#6D1953"/>
<path d="M233.431 701.475C208.652 696.519 111.388 679.28 227.768 664.658C344.148 650.036 353.352 647.912 504.869 664.905C656.385 681.897 515.223 700.767 498.939 701.475C366.539 683.067 297.152 694.395 233.431 701.475Z" fill="#962F72"/>
</g>
<path d="M727.911 533.381C431.271 415.813 124.289 480.584 4 535.014V514.331C304.45 396.219 591.838 459.357 727.911 514.331V533.381Z" fill="#CC7FB5"/>
<path d="M421.021 645.276C421.021 645.921 421.021 646.567 420.963 647.184C420.501 660.455 414.92 672.416 406.063 681.379C402.68 680.859 399.182 680.415 395.577 680.02C387.462 679.153 378.875 678.681 369.94 678.642H368.861C367.252 678.642 365.652 678.661 364.071 678.681C355.291 678.835 346.829 679.423 338.907 680.386C335.302 680.811 331.823 681.321 328.469 681.919C319.342 672.936 313.54 660.725 313.048 647.184C313 646.567 313 645.921 313 645.276C313 616.41 337.181 593 367.011 593C396.84 593 421.021 616.41 421.021 645.276Z" fill="#FFE9BD"/>
<path d="M421.021 649.073C421.021 661.515 416.549 672.936 409.07 681.89C408.087 681.716 407.075 681.543 406.063 681.379C402.68 680.859 399.182 680.415 395.577 680.02C387.462 679.153 378.875 678.68 369.94 678.632H368.861C367.252 678.632 365.652 678.661 364.071 678.68C355.291 678.835 346.829 679.422 338.907 680.386C335.302 680.81 331.823 681.321 328.469 681.919C327.457 682.092 326.445 682.266 325.433 682.458C317.665 673.408 313 661.785 313 649.073C313 648.437 313 647.791 313.048 647.174C314.06 619.196 337.846 596.797 367.011 596.797C396.175 596.797 419.951 619.196 420.963 647.174C421.021 647.791 421.021 648.437 421.021 649.073Z" fill="#FAD827"/>
<path d="M409.859 649.073C409.859 661.361 404.337 672.416 395.576 680.02C387.461 679.153 378.874 678.681 369.939 678.632H368.86C367.25 678.632 365.65 678.661 364.07 678.681C355.29 678.835 346.828 679.423 338.905 680.386C329.875 672.792 324.15 661.583 324.15 649.073C324.15 626.183 343.348 607.601 367.009 607.601C390.67 607.601 409.859 626.183 409.859 649.073Z" fill="#EFAD2B"/>
<path d="M374.065 662.547C373.053 663.385 371.646 663.905 369.94 664.175V653.121C370.904 653.371 371.627 653.593 372.061 653.738C373.641 654.287 374.75 654.923 375.367 655.636C376.012 656.378 376.311 657.265 376.311 658.306C376.311 659.935 375.569 661.342 374.065 662.547ZM364.071 642.365C362.249 641.777 360.987 641.208 360.303 640.669C359.387 639.926 358.934 639.011 358.934 637.97C358.934 636.842 359.406 635.927 360.399 635.233C361.363 634.549 362.616 634.124 364.071 633.884V642.365ZM383.684 651.251C382.479 649.352 380.802 647.868 378.672 646.779C376.726 645.796 373.796 644.832 369.94 643.897V633.999C370.952 634.25 371.82 634.616 372.485 635.136C373.796 636.12 374.634 637.748 375.029 640.023L384.204 639.628C384.06 635.58 382.547 632.351 379.665 629.932C377.342 627.985 374.094 626.819 369.94 626.424V617.74H364.071V626.405C361.7 626.597 359.609 627.07 357.806 627.812C355.31 628.843 353.44 630.327 352.11 632.274C350.8 634.23 350.154 636.322 350.154 638.587C350.154 642.066 351.542 645.035 354.327 647.454C356.226 649.102 359.483 650.48 364.071 651.646V663.954C362.77 663.636 361.652 663.115 360.717 662.325C359.069 660.966 357.98 658.846 357.44 655.935L348.506 656.773C349.094 661.708 350.944 665.457 354.028 668.03C356.496 670.103 359.85 671.336 364.071 671.731V678.68C365.652 678.661 367.251 678.642 368.861 678.642H369.94V671.799C372.735 671.606 375.174 671.115 377.198 670.295C379.839 669.206 381.891 667.577 383.347 665.361C384.802 663.163 385.515 660.792 385.515 658.287C385.515 655.492 384.918 653.15 383.684 651.251Z" fill="#FAD827"/>
<path d="M366.5 675C343.614 675.2 308 678.5 308 678.5L325.5 684.5H335.5L409.5 683L424.5 678C424.5 678 396.621 674.736 366.5 675Z" fill="#F9AAD9"/>
<path d="M495.824 493.325C503.178 521.255 485.743 550.044 456.906 557.629C428.06 565.214 398.732 548.723 391.379 520.793C384.035 492.862 401.47 464.074 430.306 456.489C459.152 448.904 488.48 465.404 495.824 493.325Z" fill="#EFAD2B"/>
<path d="M494.863 489.653C502.207 517.583 484.782 546.372 455.945 553.957C427.099 561.542 397.761 545.051 390.417 517.121C383.073 489.19 400.508 460.402 429.345 452.817C458.191 445.232 487.519 461.722 494.863 489.653Z" fill="#FAD827"/>
<path d="M484.077 492.486C489.908 514.653 476.077 537.495 453.187 543.509C430.307 549.533 407.032 536.445 401.201 514.287C395.379 492.12 409.2 469.278 432.09 463.255C454.97 457.241 478.255 470.329 484.077 492.486Z" fill="#EFAD2B"/>
<path d="M452.899 514.615C452.118 515.685 450.904 516.533 449.323 517.227L446.509 506.538C447.492 506.548 448.234 506.558 448.716 506.596C450.383 506.712 451.607 507.049 452.407 507.599C453.198 508.148 453.728 508.919 453.988 509.931C454.402 511.502 454.046 513.063 452.899 514.615ZM434.009 496.929C432.939 496.448 432.274 495.705 432.004 494.693C431.715 493.585 431.956 492.583 432.717 491.677C433.488 490.761 434.577 490.029 435.927 489.422L438.085 497.623C436.177 497.527 434.809 497.296 434.009 496.929ZM459.337 501.238C457.679 499.705 455.684 498.693 453.333 498.182C451.203 497.72 448.118 497.537 444.167 497.614L441.651 488.043C442.692 488.024 443.618 488.169 444.398 488.496C445.892 489.132 447.126 490.491 448.09 492.583L456.87 489.865C455.703 485.99 453.419 483.234 449.998 481.634C447.27 480.333 443.83 480.044 439.724 480.728L437.517 472.314L431.821 473.818L434.028 482.183C431.792 482.983 429.884 483.967 428.322 485.152C426.192 486.771 424.747 488.689 423.966 490.915C423.195 493.142 423.089 495.339 423.658 497.508C424.554 500.881 426.645 503.387 429.97 505.025C432.226 506.134 435.724 506.654 440.447 506.606L443.579 518.518C442.249 518.518 441.025 518.306 439.926 517.795C437.989 516.899 436.389 515.106 435.136 512.437L426.694 515.521C428.525 520.137 431.262 523.299 434.905 525.005C437.835 526.383 441.391 526.71 445.555 526.036L447.771 534.45L453.467 532.956L451.27 524.609C453.911 523.703 456.128 522.605 457.882 521.294C460.175 519.588 461.737 517.477 462.575 514.981C463.423 512.475 463.52 510.008 462.884 507.57C462.17 504.871 460.985 502.76 459.337 501.238Z" fill="#FAD827"/>
<path d="M344.086 406.353C351.439 434.283 334.005 463.072 305.168 470.657C276.322 478.242 246.994 461.751 239.64 433.821C232.296 405.89 249.731 377.102 278.568 369.517C307.414 361.932 336.742 378.432 344.086 406.353Z" fill="#EFAD2B"/>
<path d="M343.124 402.681C350.468 430.611 333.043 459.4 304.207 466.985C275.361 474.57 246.023 458.079 238.679 430.149C231.335 402.218 248.77 373.43 277.606 365.845C306.452 358.26 335.78 374.75 343.124 402.681Z" fill="#FAD827"/>
<path d="M332.338 405.514C338.169 427.681 324.339 450.523 301.449 456.537C278.569 462.561 255.293 449.473 249.462 427.315C243.641 405.148 257.462 382.306 280.352 376.283C303.232 370.269 326.517 383.357 332.338 405.514Z" fill="#EFAD2B"/>
<path d="M301.16 427.643C300.38 428.713 299.165 429.561 297.585 430.255L294.771 419.566C295.754 419.576 296.496 419.586 296.978 419.624C298.645 419.74 299.869 420.077 300.669 420.626C301.459 421.176 301.989 421.947 302.249 422.959C302.664 424.53 302.307 426.091 301.16 427.643ZM282.27 409.957C281.2 409.475 280.535 408.733 280.266 407.721C279.976 406.613 280.217 405.611 280.979 404.705C281.75 403.789 282.839 403.057 284.188 402.449L286.347 410.651C284.439 410.555 283.07 410.324 282.27 409.957ZM307.598 414.265C305.941 412.733 303.946 411.721 301.594 411.21C299.464 410.748 296.38 410.565 292.429 410.642L289.913 401.071C290.954 401.052 291.879 401.197 292.66 401.524C294.154 402.16 295.387 403.519 296.351 405.611L305.131 402.893C303.965 399.018 301.681 396.262 298.259 394.662C295.532 393.361 292.091 393.072 287.985 393.756L285.778 385.342L280.082 386.846L282.289 395.211C280.053 396.011 278.145 396.994 276.584 398.18C274.454 399.799 273.008 401.717 272.228 403.943C271.457 406.17 271.351 408.367 271.919 410.536C272.815 413.909 274.907 416.415 278.232 418.053C280.487 419.162 283.986 419.682 288.708 419.634L291.841 431.546C290.511 431.546 289.287 431.334 288.188 430.823C286.251 429.927 284.651 428.134 283.398 425.465L274.955 428.549C276.786 433.165 279.523 436.327 283.167 438.032C286.096 439.411 289.653 439.738 293.816 439.064L296.033 447.478L301.729 445.984L299.532 437.637C302.172 436.731 304.389 435.633 306.143 434.322C308.437 432.616 309.998 430.505 310.837 428.009C311.685 425.503 311.781 423.036 311.145 420.598C310.432 417.899 309.247 415.788 307.598 414.265Z" fill="#FAD827"/>
</g>
<defs>
<filter id="filter0_d_6_123" x="0" y="0" width="737.156" height="989.956" filterUnits="userSpaceOnUse" color-interpolation-filters="sRGB">
<feFlood flood-opacity="0" result="BackgroundImageFix"/>
<feColorMatrix in="SourceAlpha" type="matrix" values="0 0 0 0 0 0 0 0 0 0 0 0 0 0 0 0 0 0 127 0" result="hardAlpha"/>
<feOffset dx="2" dy="5"/>
<feGaussianBlur stdDeviation="3"/>
<feColorMatrix type="matrix" values="0 0 0 0 0 0 0 0 0 0 0 0 0 0 0 0 0 0 0.15 0"/>
<feBlend mode="normal" in2="BackgroundImageFix" result="effect1_dropShadow_6_123"/>
<feBlend mode="normal" in="SourceGraphic" in2="effect1_dropShadow_6_123" result="shape"/>
</filter>
</defs>
</svg>
