<svg width="726" height="978" viewBox="0 0 726 978" fill="none" xmlns="http://www.w3.org/2000/svg">
<rect x="1" width="724" height="651" rx="28.8045" fill="#F4DFEC"/>
<rect x="0.7229" y="666.868" width="724.433" height="311.089" rx="28.8045" fill="#F9AAD9"/>
<path d="M725 843.717H0V524.761C281.932 425.613 436.422 425.697 725 524.761V843.717Z" fill="#F9AAD9"/>
<mask id="mask0_6_123" style="mask-type:alpha" maskUnits="userSpaceOnUse" x="211" y="637" width="303" height="48">
<path d="M229.431 684.899C204.653 679.943 209.607 651.622 223.768 648.082C235.097 643.834 376.701 625.425 500.605 648.082C523.26 659.41 511.224 684.191 494.939 684.899C362.539 666.49 293.153 677.819 229.431 684.899Z" fill="#962F72"/>
</mask>
<g mask="url(#mask0_6_123)">
<path d="M229.431 684.899C204.653 679.943 209.607 651.622 223.768 648.082C235.097 643.834 376.701 625.425 500.605 648.082C523.26 659.41 511.224 684.191 494.939 684.899C362.539 666.49 293.153 677.819 229.431 684.899Z" fill="#6D1953"/>
<path d="M229.431 700.475C204.652 695.519 107.388 678.28 223.768 663.658C340.148 649.036 349.352 646.912 500.869 663.905C652.385 680.897 511.223 699.767 494.939 700.475C362.539 682.067 293.152 693.395 229.431 700.475Z" fill="#6D1953"/>
<path d="M229.431 700.475C204.652 695.519 107.388 678.28 223.768 663.658C340.148 649.036 349.352 646.912 500.869 663.905C652.385 680.897 511.223 699.767 494.939 700.475C362.539 682.067 293.152 693.395 229.431 700.475Z" fill="#962F72"/>
</g>
<path d="M723.911 532.381C427.271 414.813 120.289 479.584 0 534.014V513.331C300.45 395.219 587.838 458.357 723.911 513.331V532.381Z" fill="#CC7FB5"/>
<path d="M417.021 644.276C417.021 644.921 417.021 645.567 416.963 646.184C416.501 659.455 410.92 671.416 402.063 680.379C398.68 679.859 395.182 679.415 391.577 679.02C383.462 678.153 374.875 677.681 365.94 677.642H364.861C363.252 677.642 361.652 677.661 360.071 677.681C351.291 677.835 342.829 678.423 334.907 679.386C331.302 679.811 327.823 680.321 324.469 680.919C315.342 671.936 309.54 659.725 309.048 646.184C309 645.567 309 644.921 309 644.276C309 615.41 333.181 592 363.011 592C392.84 592 417.021 615.41 417.021 644.276Z" fill="#FFE9BD"/>
<path d="M417.021 648.073C417.021 660.515 412.549 671.936 405.07 680.89C404.087 680.716 403.075 680.543 402.063 680.379C398.68 679.859 395.182 679.415 391.577 679.02C383.462 678.153 374.875 677.68 365.94 677.632H364.861C363.252 677.632 361.652 677.661 360.071 677.68C351.291 677.835 342.829 678.422 334.907 679.386C331.302 679.81 327.823 680.321 324.469 680.919C323.457 681.092 322.445 681.266 321.433 681.458C313.665 672.408 309 660.785 309 648.073C309 647.437 309 646.791 309.048 646.174C310.06 618.196 333.846 595.797 363.011 595.797C392.175 595.797 415.951 618.196 416.963 646.174C417.021 646.791 417.021 647.437 417.021 648.073Z" fill="#FAD827"/>
<path d="M405.859 648.073C405.859 660.361 400.337 671.416 391.576 679.02C383.461 678.153 374.874 677.681 365.939 677.632H364.86C363.25 677.632 361.65 677.661 360.07 677.681C351.29 677.835 342.828 678.423 334.905 679.386C325.875 671.792 320.15 660.583 320.15 648.073C320.15 625.183 339.348 606.601 363.009 606.601C386.67 606.601 405.859 625.183 405.859 648.073Z" fill="#EFAD2B"/>
<path d="M370.065 661.547C369.053 662.385 367.646 662.905 365.94 663.175V652.121C366.904 652.371 367.627 652.593 368.061 652.738C369.641 653.287 370.75 653.923 371.367 654.636C372.012 655.378 372.311 656.265 372.311 657.306C372.311 658.935 371.569 660.342 370.065 661.547ZM360.071 641.365C358.249 640.777 356.987 640.208 356.303 639.669C355.387 638.926 354.934 638.011 354.934 636.97C354.934 635.842 355.406 634.927 356.399 634.233C357.363 633.549 358.616 633.124 360.071 632.884V641.365ZM379.684 650.251C378.479 648.352 376.802 646.868 374.672 645.779C372.726 644.796 369.796 643.832 365.94 642.897V632.999C366.952 633.25 367.82 633.616 368.485 634.136C369.796 635.12 370.634 636.748 371.029 639.023L380.204 638.628C380.06 634.58 378.547 631.351 375.665 628.932C373.342 626.985 370.094 625.819 365.94 625.424V616.74H360.071V625.405C357.7 625.597 355.609 626.07 353.806 626.812C351.31 627.843 349.44 629.327 348.11 631.274C346.8 633.23 346.154 635.322 346.154 637.587C346.154 641.066 347.542 644.035 350.327 646.454C352.226 648.102 355.483 649.48 360.071 650.646V662.954C358.77 662.636 357.652 662.115 356.717 661.325C355.069 659.966 353.98 657.846 353.44 654.935L344.506 655.773C345.094 660.708 346.944 664.457 350.028 667.03C352.496 669.103 355.85 670.336 360.071 670.731V677.68C361.652 677.661 363.251 677.642 364.861 677.642H365.94V670.799C368.735 670.606 371.174 670.115 373.198 669.295C375.839 668.206 377.891 666.577 379.347 664.361C380.802 662.163 381.515 659.792 381.515 657.287C381.515 654.492 380.918 652.15 379.684 650.251Z" fill="#FAD827"/>
<path d="M362.5 674C339.614 674.2 304 677.5 304 677.5L321.5 683.5H331.5L405.5 682L420.5 677C420.5 677 392.621 673.736 362.5 674Z" fill="#F9AAD9"/>
<path d="M491.824 492.325C499.178 520.255 481.743 549.044 452.906 556.629C424.06 564.214 394.732 547.723 387.379 519.793C380.035 491.862 397.47 463.074 426.306 455.489C455.152 447.904 484.48 464.404 491.824 492.325Z" fill="#EFAD2B"/>
<path d="M490.863 488.653C498.207 516.583 480.782 545.372 451.945 552.957C423.099 560.542 393.761 544.051 386.417 516.121C379.073 488.19 396.508 459.402 425.345 451.817C454.191 444.232 483.519 460.722 490.863 488.653Z" fill="#FAD827"/>
<path d="M480.077 491.486C485.908 513.653 472.077 536.495 449.187 542.509C426.307 548.533 403.032 535.445 397.201 513.287C391.379 491.12 405.2 468.278 428.09 462.255C450.97 456.241 474.255 469.329 480.077 491.486Z" fill="#EFAD2B"/>
<path d="M448.899 513.615C448.118 514.685 446.904 515.533 445.323 516.227L442.509 505.538C443.492 505.548 444.234 505.558 444.716 505.596C446.383 505.712 447.607 506.049 448.407 506.599C449.198 507.148 449.728 507.919 449.988 508.931C450.402 510.502 450.046 512.063 448.899 513.615ZM430.009 495.929C428.939 495.448 428.274 494.705 428.004 493.693C427.715 492.585 427.956 491.583 428.717 490.677C429.488 489.761 430.577 489.029 431.927 488.422L434.085 496.623C432.177 496.527 430.809 496.296 430.009 495.929ZM455.337 500.238C453.679 498.705 451.684 497.693 449.333 497.182C447.203 496.72 444.118 496.537 440.167 496.614L437.651 487.043C438.692 487.024 439.618 487.169 440.398 487.496C441.892 488.132 443.126 489.491 444.09 491.583L452.87 488.865C451.703 484.99 449.419 482.234 445.998 480.634C443.27 479.333 439.83 479.044 435.724 479.728L433.517 471.314L427.821 472.818L430.028 481.183C427.792 481.983 425.884 482.967 424.322 484.152C422.192 485.771 420.747 487.689 419.966 489.915C419.195 492.142 419.089 494.339 419.658 496.508C420.554 499.881 422.645 502.387 425.97 504.025C428.226 505.134 431.724 505.654 436.447 505.606L439.579 517.518C438.249 517.518 437.025 517.306 435.926 516.795C433.989 515.899 432.389 514.106 431.136 511.437L422.694 514.521C424.525 519.137 427.262 522.299 430.905 524.005C433.835 525.383 437.391 525.71 441.555 525.036L443.771 533.45L449.467 531.956L447.27 523.609C449.911 522.703 452.128 521.605 453.882 520.294C456.175 518.588 457.737 516.477 458.575 513.981C459.423 511.475 459.52 509.008 458.884 506.57C458.17 503.871 456.985 501.76 455.337 500.238Z" fill="#FAD827"/>
<path d="M340.086 405.353C347.439 433.283 330.005 462.072 301.168 469.657C272.322 477.242 242.994 460.751 235.64 432.821C228.296 404.89 245.731 376.102 274.568 368.517C303.414 360.932 332.742 377.432 340.086 405.353Z" fill="#EFAD2B"/>
<path d="M339.124 401.681C346.468 429.611 329.043 458.4 300.207 465.985C271.361 473.57 242.023 457.079 234.679 429.149C227.335 401.218 244.77 372.43 273.606 364.845C302.452 357.26 331.78 373.75 339.124 401.681Z" fill="#FAD827"/>
<path d="M328.338 404.514C334.169 426.681 320.339 449.523 297.449 455.537C274.569 461.561 251.293 448.473 245.462 426.315C239.641 404.148 253.462 381.306 276.352 375.283C299.232 369.269 322.517 382.357 328.338 404.514Z" fill="#EFAD2B"/>
<path d="M297.16 426.643C296.38 427.713 295.165 428.561 293.585 429.255L290.771 418.566C291.754 418.576 292.496 418.586 292.978 418.624C294.645 418.74 295.869 419.077 296.669 419.626C297.459 420.176 297.989 420.947 298.249 421.959C298.664 423.53 298.307 425.091 297.16 426.643ZM278.27 408.957C277.2 408.475 276.535 407.733 276.266 406.721C275.976 405.613 276.217 404.611 276.979 403.705C277.75 402.789 278.839 402.057 280.188 401.449L282.347 409.651C280.439 409.555 279.07 409.324 278.27 408.957ZM303.598 413.265C301.941 411.733 299.946 410.721 297.594 410.21C295.464 409.748 292.38 409.565 288.429 409.642L285.913 400.071C286.954 400.052 287.879 400.197 288.66 400.524C290.154 401.16 291.387 402.519 292.351 404.611L301.131 401.893C299.965 398.018 297.681 395.262 294.259 393.662C291.532 392.361 288.091 392.072 283.985 392.756L281.778 384.342L276.082 385.846L278.289 394.211C276.053 395.011 274.145 395.994 272.584 397.18C270.454 398.799 269.008 400.717 268.228 402.943C267.457 405.17 267.351 407.367 267.919 409.536C268.815 412.909 270.907 415.415 274.232 417.053C276.487 418.162 279.986 418.682 284.708 418.634L287.841 430.546C286.511 430.546 285.287 430.334 284.188 429.823C282.251 428.927 280.651 427.134 279.398 424.465L270.955 427.549C272.786 432.165 275.523 435.327 279.167 437.032C282.096 438.411 285.653 438.738 289.816 438.064L292.033 446.478L297.729 444.984L295.532 436.637C298.172 435.731 300.389 434.633 302.143 433.322C304.437 431.616 305.998 429.505 306.837 427.009C307.685 424.503 307.781 422.036 307.145 419.598C306.432 416.899 305.247 414.788 303.598 413.265Z" fill="#FAD827"/>
</svg>
